<svg width="64" height="64" viewBox="0 0 64 64" fill="none" xmlns="http://www.w3.org/2000/svg">
<path d="M63.8695 32.2923L56.9766 38.4727C56.8607 38.5767 56.8171 38.7393 56.8656 38.8872L59.7485 47.6856C59.8214 47.908 59.6847 48.1442 59.4557 48.1921L50.3911 50.0874C50.2384 50.1192 50.1191 50.2386 50.0871 50.3914L48.1919 59.4559C48.144 59.6849 47.9076 59.8215 47.6854 59.7486L38.8871 56.8656C38.7391 56.8171 38.5765 56.8606 38.4726 56.9766L32.2923 63.8695C32.1363 64.0435 31.8636 64.0435 31.7076 63.8695L25.5273 56.9766C25.4233 56.8607 25.2606 56.8171 25.1127 56.8656L16.3144 59.7485C16.092 59.8214 15.8558 59.6847 15.8079 59.4557L13.9126 50.3911C13.8808 50.2383 13.7614 50.1191 13.6086 50.0871L4.54413 48.1918C4.31512 48.144 4.1785 47.9076 4.25138 47.6853L7.13438 38.8871C7.18288 38.7391 7.13938 38.5765 7.02338 38.4726L0.1305 32.2923C-0.0435 32.1363 -0.0435 31.8637 0.1305 31.7077L7.02338 25.5273C7.13925 25.4233 7.18288 25.2607 7.13438 25.1128L4.2515 16.3144C4.17863 16.092 4.31525 15.8558 4.54425 15.8079L13.6089 13.9127C13.7616 13.8808 13.8809 13.7614 13.9129 13.6087L15.8081 4.54413C15.856 4.31513 16.0924 4.17851 16.3146 4.25138L25.1129 7.13439C25.2609 7.18289 25.4235 7.13939 25.5274 7.02339L31.7078 0.1305C31.8638 -0.0435001 32.1364 -0.0435001 32.2924 0.1305L38.4728 7.02339C38.5768 7.13926 38.7394 7.18289 38.8872 7.13439L47.6856 4.25151C47.908 4.17863 48.1442 4.31526 48.1921 4.54426L50.0874 13.6089C50.1193 13.7617 50.2386 13.8809 50.3914 13.9129L59.4559 15.8082C59.6849 15.856 59.8215 16.0924 59.7486 16.3147L56.8656 25.1129C56.8171 25.2609 56.8606 25.4236 56.9766 25.5274L63.8695 31.7078C64.0435 31.8637 64.0435 32.1362 63.8695 32.2923Z" fill="#FECE85"/>
<path d="M21.2712 6.02343L15.9854 4.29068C16.0792 4.2328 16.1989 4.21355 16.3147 4.2508L21.6006 5.98231C21.5029 6.04393 21.3832 6.05943 21.2712 6.02343Z" fill="#FEC165"/>
<path d="M35.3702 55.6389L38.7753 56.8481C38.6621 56.843 38.5502 56.8893 38.4731 56.9768L32.292 63.8693C32.1363 64.0429 31.8636 64.0429 31.708 63.8693L29.6008 61.519L34.9561 55.7495C35.0602 55.6338 35.2222 55.59 35.3702 55.6389Z" fill="#FEC165"/>
<path d="M47.1552 13.0178L45.3992 4.99962L47.6852 4.25099C47.9077 4.17899 48.1444 4.31537 48.192 4.54424L50.0869 13.6083C50.0998 13.6726 50.1294 13.7305 50.1705 13.778L47.4588 13.3214C47.3069 13.2891 47.1873 13.1709 47.1552 13.0178Z" fill="#FEC165"/>
<path d="M56.9768 38.4731C56.8611 38.576 56.8173 38.7394 56.8662 38.8874L59.7491 47.6851C59.8211 47.9076 59.6847 48.1444 59.4558 48.192L50.3918 50.0869C50.2387 50.119 50.1191 50.2386 50.087 50.3918L48.1921 59.4558C48.1445 59.6848 47.9078 59.8212 47.6852 59.749L44.877 58.8293C44.9516 58.7739 45.0068 58.6929 45.0275 58.5939L47.0432 48.1278C47.0753 47.9746 47.1937 47.855 47.3468 47.8229L55.3212 46.3139C55.5502 46.2663 55.6866 46.0296 55.6132 45.8084L53.025 37.7761C52.9761 37.6282 53.0198 37.4661 53.1356 37.3619L59.0633 32.2921C59.237 32.1365 59.237 31.8637 59.0633 31.7081L52.9297 25.554C52.814 25.4497 52.7702 25.2877 52.8178 25.1397L55.9077 15.2036C55.9218 15.1586 55.9283 15.1136 55.927 15.0698L59.4556 15.8082C59.6846 15.8558 59.821 16.0925 59.7488 16.3151L56.866 25.1128C56.8171 25.2608 56.8608 25.4242 56.9766 25.5271L63.8691 31.7082C64.0427 31.8639 64.0427 32.1366 63.8691 32.2922L56.9768 38.4731Z" fill="#FEC165"/>
<path d="M32 52.1189C43.1113 52.1189 52.1189 43.1114 52.1189 32C52.1189 20.8886 43.1113 11.8811 32 11.8811C20.8886 11.8811 11.8811 20.8886 11.8811 32C11.8811 43.1114 20.8886 52.1189 32 52.1189Z" fill="#FDB441"/>
<path d="M52.1193 32.0001C52.1193 43.112 43.1119 52.1194 32 52.1194C29.7424 52.1194 27.5723 51.7476 25.5461 51.0606C26.8556 51.3295 28.2115 51.4697 29.6009 51.4697C40.7128 51.4697 49.7201 42.4624 49.7201 31.3517C49.7201 22.4974 44.0008 14.9797 36.0548 12.2898C45.2229 14.1654 52.1193 22.2774 52.1193 32.0001Z" fill="#FEA613"/>
<path d="M25.168 30.6405C24.6502 30.6405 24.2305 30.2208 24.2305 29.703V27.271C24.2305 26.7532 24.6502 26.3335 25.168 26.3335C25.6857 26.3335 26.1055 26.7532 26.1055 27.271V29.703C26.1055 30.2208 25.6857 30.6405 25.168 30.6405Z" fill="#FB8801"/>
<path d="M38.832 30.6405C38.3142 30.6405 37.8945 30.2208 37.8945 29.703V27.271C37.8945 26.7532 38.3142 26.3335 38.832 26.3335C39.3499 26.3335 39.7695 26.7532 39.7695 27.271V29.703C39.7695 30.2208 39.3499 30.6405 38.832 30.6405Z" fill="#FB8801"/>
<path d="M21.3219 37.1396C22.8713 37.1396 24.1274 35.8835 24.1274 34.3341C24.1274 32.7846 22.8713 31.5286 21.3219 31.5286C19.7724 31.5286 18.5164 32.7846 18.5164 34.3341C18.5164 35.8835 19.7724 37.1396 21.3219 37.1396Z" fill="#FB8801"/>
<path d="M42.6781 37.1396C44.2275 37.1396 45.4836 35.8835 45.4836 34.3341C45.4836 32.7846 44.2275 31.5286 42.6781 31.5286C41.1286 31.5286 39.8726 32.7846 39.8726 34.3341C39.8726 35.8835 41.1286 37.1396 42.6781 37.1396Z" fill="#FB8801"/>
<path d="M32 42.5308C29.5608 42.5308 27.4021 40.9774 26.6288 38.6656C26.4645 38.1746 26.7294 37.6433 27.2204 37.4791C27.7114 37.3149 28.2426 37.5796 28.4069 38.0707C28.9243 39.6169 30.3681 40.6558 32.0001 40.6558C33.6319 40.6558 35.0759 39.6169 35.5933 38.0709C35.7574 37.5799 36.2885 37.3152 36.7798 37.4793C37.2708 37.6436 37.5356 38.1748 37.3713 38.6658C36.5978 40.9776 34.4394 42.5308 32 42.5308Z" fill="#FB8801"/>
</svg>
